<svg width="60" height="60" viewBox="0 0 60 60" fill="none" xmlns="http://www.w3.org/2000/svg">
<g clip-path="url(#clip0_1247_6666)">
<path d="M36.5788 15.8802C34.7648 17.6945 32.3826 18.6018 30.0004 18.6018C27.6183 18.6018 25.2359 17.6946 23.422 15.8802C19.7942 12.2527 19.7942 6.34898 23.422 2.72027C25.2358 0.907148 27.6181 0 30.0003 0C32.3825 0 34.7648 0.907149 36.5786 2.72039C40.2065 6.34898 40.2065 12.2527 36.5788 15.8802Z" fill="#97DE3D"/>
<path d="M15.8837 36.5797C14.0709 38.3939 11.6887 39.3012 9.30525 39.3012C6.92306 39.3012 4.54075 38.3941 2.72681 36.5797C-0.902371 32.9472 -0.915496 27.0653 2.72681 23.4197C6.35716 19.7886 12.2607 19.7936 15.8836 23.4197C19.5205 27.0575 19.5209 32.9416 15.8837 36.5797Z" fill="#FFE14D"/>
<path d="M57.2732 36.5797C55.5234 38.33 53.1726 39.3013 50.6948 39.3013H50.6936C48.3102 39.3013 45.9291 38.3941 44.1164 36.5797C40.4796 32.942 40.4792 27.058 44.1164 23.4198C45.9292 21.6055 48.3114 20.6982 50.6936 20.6982C53.0758 20.6982 55.4593 21.6054 57.2732 23.4198C60.9025 27.0524 60.9154 32.9343 57.2732 36.5797Z" fill="#FF4D4D"/>
<path d="M36.5789 57.2799C34.7892 59.0677 32.4241 60.0003 30.0004 60.0003C27.6183 60.0003 25.2359 59.0932 23.422 57.2799C19.7942 53.6512 19.7942 47.7475 23.422 44.12C25.2359 42.3057 27.6181 41.3984 30.0004 41.3984C32.3826 41.3984 34.7649 42.3056 36.5788 44.12C40.2067 47.7477 40.2067 53.6513 36.5789 57.2799Z" fill="#7ED8F6"/>
<path d="M11.0756 18.9214C10.2805 18.3644 10.0874 17.2681 10.6444 16.4729C12.2385 14.1962 14.2008 12.2334 16.4766 10.6394C17.2717 10.0825 18.3676 10.2757 18.9246 11.071C19.4815 11.8664 19.2883 12.9626 18.4931 13.5195C16.554 14.8777 14.8821 16.5501 13.5237 18.49C12.9668 19.2853 11.8709 19.4785 11.0756 18.9214Z" fill="#DFE7F4"/>
<path d="M41.0759 48.9295C40.519 48.1341 40.7123 47.0378 41.5074 46.481C43.4465 45.1228 45.1184 43.4504 46.4768 41.5105C47.0338 40.715 48.1298 40.522 48.9249 41.079C49.72 41.636 49.9131 42.7323 49.3561 43.5275C47.762 45.8042 45.7997 47.767 43.524 49.361C42.7297 49.9175 41.6335 49.7255 41.0759 48.9295Z" fill="#C7CFE1"/>
<path d="M16.4765 49.3609C14.2008 47.7668 12.2385 45.8041 10.6444 43.5274C10.0874 42.7321 10.2806 41.6359 11.0756 41.0789C11.871 40.522 12.9668 40.715 13.5237 41.5104C14.8821 43.4503 16.554 45.1227 18.4931 46.4809C19.2883 47.0379 19.4815 48.1341 18.9246 48.9294C18.3681 49.7243 17.2723 49.9182 16.4765 49.3609Z" fill="#DFE7F4"/>
<path d="M46.4769 18.4901C45.1184 16.5501 43.4465 14.8778 41.5074 13.5196C40.7122 12.9626 40.5191 11.8664 41.0759 11.071C41.6328 10.2756 42.7287 10.0826 43.524 10.6394C45.7998 12.2335 47.7621 14.1962 49.3562 16.4729C49.9132 17.2683 49.7199 18.3644 48.9249 18.9214C48.1295 19.4785 47.0336 19.2853 46.4769 18.4901Z" fill="#C7CFE1"/>
<path d="M36.5784 44.12C40.2062 47.7475 40.2062 53.6512 36.5784 57.2799C34.7887 59.0676 32.4237 60.0002 30 60.0002V41.3984C32.3822 41.3984 34.7645 42.3056 36.5784 44.12Z" fill="#6AA9FF"/>
<path d="M36.5783 15.8802C34.7644 17.6945 32.3822 18.6018 30 18.6018V0C32.3822 0 34.7645 0.907149 36.5783 2.72039C40.2061 6.34898 40.2061 12.2527 36.5783 15.8802Z" fill="#59C36A"/>
<path d="M15.8841 36.5796C14.0713 38.3939 11.6891 39.3012 9.30566 39.3012V20.6982C11.6879 20.6982 14.0713 21.6054 15.8841 23.4198C19.5209 27.0574 19.5214 32.9415 15.8841 36.5796Z" fill="#FABE2C"/>
<path d="M57.273 36.5796C55.5231 38.3299 53.1723 39.3012 50.6945 39.3012H50.6934V20.6982C53.0755 20.6982 55.459 21.6054 57.273 23.4198C60.9023 27.0523 60.9152 32.9341 57.273 36.5796Z" fill="#CD0000"/>
</g>
<defs>
<clipPath id="clip0_1247_6666">
<rect width="60" height="60" fill="white"/>
</clipPath>
</defs>
</svg>
