<svg width="100" height="100" viewBox="0 0 100 100" fill="none" xmlns="http://www.w3.org/2000/svg">
<g clip-path="url(#clip0_1247_6807)">
<path d="M100 50C100 63.3555 94.7988 75.9121 85.3555 85.3555C75.9121 94.7988 63.3555 100 50 100C48.1309 100 46.2773 99.8984 44.4473 99.6953C33.1914 98.4609 22.7656 93.4766 14.6445 85.3555C5.20117 75.9121 0 63.3555 0 50C0 36.6445 5.20117 24.0879 14.6445 14.6445C22.7656 6.52344 33.1914 1.53906 44.4473 0.304688C46.2773 0.101562 48.1309 0 50 0C63.3555 0 75.9121 5.20117 85.3555 14.6445C94.7988 24.0879 100 36.6445 100 50Z" fill="#F0F7FF"/>
<path d="M99.9981 50C99.9981 63.3555 94.7969 75.9121 85.3535 85.3555C75.9102 94.7988 63.3535 100 49.9981 100C48.1289 100 46.2754 99.8984 44.4453 99.6953V0.304688C46.2754 0.101562 48.1289 0 49.9981 0C63.3535 0 75.9102 5.20117 85.3535 14.6445C94.7969 24.0879 99.9981 36.6445 99.9981 50Z" fill="#DFE7F4"/>
<path d="M77.2793 42.7576L56.8789 63.4569L56.9805 63.5584L51.0156 69.5233C47.4518 73.0871 41.6633 73.1004 38.084 69.5252L32.1133 63.5584L32.1172 63.5545L22.7656 54.201C21.0488 52.4842 20.1914 50.2362 20.1914 47.9862C20.1914 45.7381 21.0488 43.4881 22.7656 41.7713C26.1973 38.3397 31.7617 38.3397 35.1934 41.7713L44.4473 51.0252L64.7617 30.4178C68.1855 26.9432 73.7852 26.9236 77.2344 30.3729C80.6504 33.7869 80.6699 39.3182 77.2793 42.7576Z" fill="#97DE3D"/>
<path d="M77.2773 42.7576L56.8769 63.4569L56.9785 63.5584L51.0137 69.5233C49.2031 71.3338 46.8203 72.2264 44.4453 72.201V51.0252L64.7598 30.4178C68.1836 26.9432 73.7832 26.9236 77.2324 30.3729C80.6484 33.7869 80.668 39.3182 77.2773 42.7576Z" fill="#59C36A"/>
</g>
<defs>
<clipPath id="clip0_1247_6807">
<rect width="100" height="100" fill="white"/>
</clipPath>
</defs>
</svg>
