<svg width="14" height="14" viewBox="0 0 14 14" fill="none" xmlns="http://www.w3.org/2000/svg">
<path d="M13.2934 2.11491C13.6827 1.72558 13.6827 1.09442 13.2934 0.70509C12.904 0.315694 12.2727 0.315694 11.8834 0.70509L7.70625 4.88276C7.31572 5.27334 6.68248 5.27334 6.29195 4.88276L2.11482 0.70509C1.72547 0.315694 1.09416 0.315695 0.704819 0.705091C0.315544 1.09442 0.315543 1.72558 0.704819 2.11491L4.88231 6.29294C5.27278 6.68345 5.27278 7.31655 4.88231 7.70706L0.704818 11.8851C0.315543 12.2744 0.315544 12.9056 0.704819 13.2949C1.09416 13.6843 1.72547 13.6843 2.11482 13.2949L6.29195 9.11724C6.68248 8.72666 7.31572 8.72666 7.70625 9.11724L11.8834 13.2949C12.2727 13.6843 12.904 13.6843 13.2934 13.2949C13.6827 12.9056 13.6827 12.2744 13.2934 11.8851L9.11589 7.70706C8.72543 7.31655 8.72543 6.68345 9.11589 6.29294L13.2934 2.11491Z" fill="#E4002B"/>
</svg>
