<svg width="170" height="170" viewBox="0 0 170 170" fill="none" xmlns="http://www.w3.org/2000/svg">
<g clip-path="url(#clip0_1247_7449)">
<path d="M170 85C170 107.704 161.158 129.051 145.104 145.104C129.051 161.158 107.704 170 85 170C62.2957 170 40.9494 161.158 24.8957 145.104C8.84199 129.051 0 107.704 0 85C0 62.2957 8.84199 40.9494 24.8957 24.8957C40.9494 8.84199 62.2957 0 85 0C107.704 0 129.051 8.84199 145.104 24.8957C161.158 40.9494 170 62.2957 170 85Z" fill="#F0F7FF"/>
<path d="M170 85C170 107.704 161.158 129.051 145.104 145.104C129.051 161.158 107.704 170 85 170V0C107.704 0 129.051 8.84199 145.104 24.8957C161.158 40.9494 170 62.2957 170 85Z" fill="#DFE7F4"/>
<path d="M122.797 101.667C128.637 107.506 128.627 116.973 122.797 122.797C116.963 128.634 107.504 128.634 101.667 122.797L84.9985 106.129L68.3306 122.797C62.4908 128.637 53.0239 128.627 47.2001 122.797C41.363 116.963 41.363 107.504 47.2001 101.667L63.8681 84.9985L47.2001 68.3306C41.3607 62.4911 41.3696 53.0239 47.2001 47.2001C53.0339 41.363 62.4935 41.363 68.3306 47.2001L84.9985 63.8681L101.667 47.2001C107.506 41.3607 116.973 41.3696 122.797 47.2001C128.634 53.0339 128.634 62.4935 122.797 68.3306L106.129 84.9985L122.797 101.667Z" fill="#FF4D4D"/>
<path d="M122.798 101.669C128.638 107.509 128.629 116.976 122.798 122.799C116.965 128.636 107.505 128.636 101.668 122.799L85 106.131V63.8704L101.668 47.2024C107.507 41.363 116.975 41.3719 122.798 47.2024C128.636 53.0362 128.636 62.4957 122.798 68.3329L106.13 85.0008L122.798 101.669Z" fill="#CD0000"/>
</g>
<defs>
<clipPath id="clip0_1247_7449">
<rect width="170" height="170" fill="white"/>
</clipPath>
</defs>
</svg>
