<svg width="60" height="60" viewBox="0 0 60 60" fill="none" xmlns="http://www.w3.org/2000/svg">
<path d="M58.6588 28.2599C61.6822 31.635 59.2566 37.0489 54.7213 37.0489H41.4321C44.561 42.5685 45.2996 47.5958 43.4714 51.0413C42.311 53.2559 40.1313 54.5918 37.6354 54.5918H37.6002C33.8034 54.5918 33.1705 51.6388 32.643 49.2834C31.94 46.0489 30.9908 41.6544 24.311 37.0489H17.5781C16.5936 37.0489 15.8203 36.2756 15.8203 35.2911V10.6818C15.8203 9.6975 16.5936 8.92394 17.5781 8.92394H21.0765L22.4832 8.53722C27.9322 6.99035 33.5923 5.40832 39.4631 5.40832H47.69C51.4168 5.40832 53.9831 9.17004 52.5768 12.6153C55.6354 13.4593 57.2524 16.764 56.0924 19.6466C57.8854 20.1388 59.151 21.4396 59.678 22.9864C60.3115 24.7091 60.0299 26.7131 58.6588 28.2599Z" fill="#FEDBAB"/>
<path d="M56.0924 19.6465C57.2524 16.7639 55.6353 13.4592 52.5768 12.6152C53.9831 9.17005 51.4167 5.40821 47.69 5.40821H39.4631C33.5923 5.40821 27.9322 6.99025 22.4832 8.53712L21.0765 8.92384H17.5781C16.5936 8.92384 15.8203 9.69739 15.8203 10.6816V22.9863H59.678C59.151 21.4396 57.8855 20.1387 56.0924 19.6465Z" fill="#FEC478"/>
<path d="M14.0625 40.5645H1.75781C0.77332 40.5645 0 39.7911 0 38.8066V7.16602C0 6.18176 0.77332 5.40821 1.75781 5.40821H14.0625C16.9807 5.40821 19.3359 7.76379 19.3359 10.6816V35.291C19.3359 38.2091 16.9807 40.5645 14.0625 40.5645Z" fill="#FD003A"/>
<path d="M19.3359 22.9863V10.6816C19.3359 7.7638 16.9807 5.40821 14.0625 5.40821H1.75781C0.77332 5.40821 0 6.18177 0 7.16603V22.9863H19.3359Z" fill="#E50027"/>
<path d="M10.5469 12.4395C11.5177 12.4395 12.3047 13.2265 12.3047 14.1973C12.3047 15.1681 11.5177 15.9551 10.5469 15.9551C9.57606 15.9551 8.78906 15.1681 8.78906 14.1973C8.78906 13.2265 9.57606 12.4395 10.5469 12.4395Z" fill="#C5C9F7"/>
</svg>
