<svg width="60" height="60" viewBox="0 0 60 60" fill="none" xmlns="http://www.w3.org/2000/svg">
<path d="M28.8281 10.5469V14.0625H21.2109C16.3652 14.0625 12.4219 18.0047 12.4219 22.8516V28.7109H8.90625V22.8516C8.90625 16.0664 14.4258 10.5469 21.2109 10.5469H28.8281Z" fill="#E7E7E7"/>
<path d="M38.7879 9.96094L38.7844 14.7656H28.2422V5.27344H28.8281C28.8281 7.78711 30.818 9.96094 33.6328 9.96094H38.7879Z" fill="#444444"/>
<path d="M38.7879 9.96113L38.7844 14.7658H33.5156V9.95996C33.5543 9.96113 33.593 9.96113 33.6328 9.96113H38.7879Z" fill="#282828"/>
<path d="M17.6875 54.3255L15.3438 29.7162C15.2579 28.8139 14.5002 28.125 13.5939 28.125H7.73457C6.82836 28.125 6.07063 28.8139 5.98461 29.7162L3.64087 54.3255C3.54278 55.3557 4.35313 56.25 5.39083 56.25H15.9377C16.9767 56.25 17.7855 55.3546 17.6875 54.3255Z" fill="#5A5A5A"/>
<path d="M51.0938 0C49.6846 0.000117188 52.8974 0 33.5156 0C30.6079 0 28.2422 2.36566 28.2422 5.27344C28.2422 8.05078 30.4358 10.5469 33.6328 10.5469H49.3359C50.3067 10.5469 51.0938 9.75984 51.0938 8.78906C51.0938 7.81828 50.3067 7.03125 49.3359 7.03125H38.4867C38.8787 5.92594 38.9011 4.68387 38.4867 3.51562H51.0938C52.063 3.51562 52.8516 4.30418 52.8516 5.27344C52.8516 6.24422 53.6386 7.03125 54.6094 7.03125C55.5802 7.03125 56.3672 6.24422 56.3672 5.27344C56.3672 2.36566 54.0015 0 51.0938 0Z" fill="#5A5A5A"/>
<path d="M56.3672 5.27344C56.3672 6.24375 55.5797 7.03125 54.6094 7.03125C53.6391 7.03125 52.8516 6.24375 52.8516 5.27344C52.8516 4.3043 52.0629 3.51562 51.0938 3.51562H38.4867C38.9016 4.68398 38.8793 5.92617 38.4867 7.03125H49.3359C50.3062 7.03125 51.0938 7.81875 51.0938 8.78906C51.0938 9.75937 50.3062 10.5469 49.3359 10.5469H33.6328C33.593 10.5469 33.5543 10.5469 33.5156 10.5445V0H51.0938C54.0012 0 56.3672 2.36602 56.3672 5.27344Z" fill="#444444"/>
<path d="M33.5156 7.03125C34.4864 7.03125 35.2734 6.24425 35.2734 5.27344C35.2734 4.30262 34.4864 3.51562 33.5156 3.51562C32.5448 3.51562 31.7578 4.30262 31.7578 5.27344C31.7578 6.24425 32.5448 7.03125 33.5156 7.03125Z" fill="#444444"/>
<path d="M35.2734 5.27344C35.2734 6.24258 34.4848 7.03125 33.5156 7.03125V3.51562C34.4848 3.51562 35.2734 4.3043 35.2734 5.27344Z" fill="#282828"/>
<path d="M45.8203 21.2109C45.8203 17.3277 42.6723 14.1797 38.7891 14.1797H28.2422C24.3589 14.1797 21.2109 17.3277 21.2109 21.2109V50.9766L23.606 53.9062H43.4766L45.8203 50.9766V21.2109Z" fill="#FF4949"/>
<path d="M45.8203 21.2109V50.9766L43.4766 53.9062H33.5156V14.1797H38.7891C42.6727 14.1797 45.8203 17.3273 45.8203 21.2109Z" fill="#FF193D"/>
<path d="M21.2109 50.9766V58.2422C21.2109 59.213 21.998 60 22.9688 60H44.0625C45.0333 60 45.8203 59.213 45.8203 58.2422V50.9766H21.2109Z" fill="#FF6C6C"/>
<path d="M45.8203 50.9766V58.2422C45.8203 59.2125 45.0328 60 44.0625 60H33.5156V50.9766H45.8203Z" fill="#FF4949"/>
<path d="M37.0313 22.8516H30C29.0295 22.8516 28.2425 23.6382 28.2422 24.6088L28.2363 42.1869C28.2362 42.6532 28.4214 43.1005 28.751 43.4302C29.0807 43.7599 29.5279 43.9453 29.9941 43.9453H37.0313C38.002 43.9453 38.7891 43.1583 38.7891 42.1875V24.6094C38.7891 23.6386 38.002 22.8516 37.0313 22.8516Z" fill="#FFD400"/>
<path d="M38.7891 24.6094V42.1875C38.7891 43.1578 38.0016 43.9453 37.0313 43.9453H33.5156V22.8516H37.0313C38.0016 22.8516 38.7891 23.6391 38.7891 24.6094Z" fill="#FDBF00"/>
</svg>
