<svg width="23" height="23" viewBox="0 0 23 23" fill="none" xmlns="http://www.w3.org/2000/svg">
<g clip-path="url(#clip0_1247_6828)">
<path d="M22.7607 6.76103C22.7075 5.55538 22.5126 4.7265 22.2333 4.00827C21.9451 3.24588 21.5019 2.56332 20.9211 1.9959C20.3537 1.41965 19.6666 0.971878 18.9131 0.688256C18.1907 0.408962 17.3661 0.213993 16.1605 0.160836C14.9458 0.103176 14.5602 0.0898438 11.4795 0.0898438C8.39879 0.0898438 8.01318 0.103176 6.80302 0.156334C5.59737 0.209492 4.76849 0.404634 4.05043 0.683754C3.28787 0.971878 2.60531 1.41515 2.03789 1.9959C1.46164 2.56332 1.01404 3.25038 0.730248 4.00394C0.450954 4.7265 0.255986 5.55087 0.202828 6.75653C0.145169 7.97119 0.131836 8.3568 0.131836 11.4375C0.131836 14.5182 0.145169 14.9038 0.198326 16.114C0.251484 17.3196 0.446626 18.1485 0.725919 18.8668C1.01404 19.6291 1.46164 20.3117 2.03789 20.8791C2.60531 21.4554 3.29237 21.9031 4.04593 22.1868C4.76849 22.4661 5.59287 22.661 6.7987 22.7142C8.00868 22.7675 8.39446 22.7807 11.4752 22.7807C14.5559 22.7807 14.9415 22.7675 16.1517 22.7142C17.3573 22.661 18.1862 22.4661 18.9042 22.1868C20.4292 21.5972 21.6349 20.3915 22.2244 18.8668C22.5036 18.1442 22.6987 17.3196 22.7519 16.114C22.805 14.9038 22.8183 14.5182 22.8183 11.4375C22.8183 8.3568 22.8138 7.97119 22.7607 6.76103ZM20.7173 16.0253C20.6685 17.1335 20.4824 17.7319 20.3272 18.1309C19.9459 19.1194 19.1614 19.9039 18.1729 20.2852C17.7739 20.4404 17.1712 20.6265 16.0673 20.6752C14.8705 20.7285 14.5116 20.7416 11.484 20.7416C8.45645 20.7416 8.093 20.7285 6.90051 20.6752C5.79234 20.6265 5.19393 20.4404 4.79498 20.2852C4.30306 20.1034 3.85529 19.8153 3.49184 19.4385C3.11507 19.0706 2.82694 18.6273 2.64513 18.1354C2.48999 17.7364 2.30385 17.1335 2.25519 16.0298C2.20186 14.833 2.1887 14.4739 2.1887 11.4463C2.1887 8.41879 2.20186 8.05534 2.25519 6.86302C2.30385 5.75485 2.48999 5.15644 2.64513 4.75749C2.82694 4.2654 3.11507 3.8178 3.49635 3.45418C3.86412 3.0774 4.30739 2.78928 4.79949 2.60764C5.19843 2.4525 5.80134 2.26636 6.90501 2.21753C8.10183 2.16437 8.46095 2.15104 11.4883 2.15104C14.5204 2.15104 14.8793 2.16437 16.0718 2.21753C17.18 2.26636 17.7784 2.4525 18.1774 2.60764C18.6693 2.78928 19.1171 3.0774 19.4805 3.45418C19.8573 3.82213 20.1454 4.2654 20.3272 4.75749C20.4824 5.15644 20.6685 5.75918 20.7173 6.86302C20.7705 8.05984 20.7838 8.41879 20.7838 11.4463C20.7838 14.4739 20.7705 14.8285 20.7173 16.0253Z" fill="#161616"/>
<path d="M11.4784 5.6084C8.26037 5.6084 5.64941 8.21918 5.64941 11.4374C5.64941 14.6556 8.26037 17.2664 11.4784 17.2664C14.6966 17.2664 17.3074 14.6556 17.3074 11.4374C17.3074 8.21918 14.6966 5.6084 11.4784 5.6084ZM11.4784 15.2185C9.3907 15.2185 7.69728 13.5252 7.69728 11.4374C7.69728 9.34951 9.3907 7.65626 11.4784 7.65626C13.5663 7.65626 15.2595 9.34951 15.2595 11.4374C15.2595 13.5252 13.5663 15.2185 11.4784 15.2185Z" fill="#161616"/>
<path d="M18.8985 5.37838C18.8985 6.12986 18.2892 6.73918 17.5376 6.73918C16.7861 6.73918 16.1768 6.12986 16.1768 5.37838C16.1768 4.62673 16.7861 4.01758 17.5376 4.01758C18.2892 4.01758 18.8985 4.62673 18.8985 5.37838Z" fill="#161616"/>
</g>
<defs>
<clipPath id="clip0_1247_6828">
<rect width="22.6909" height="22.6909" fill="white" transform="translate(0.0908203 0.090332)"/>
</clipPath>
</defs>
</svg>
