<svg width="54" height="20" viewBox="0 0 54 20" fill="none" xmlns="http://www.w3.org/2000/svg">
<path d="M0.978769 18.0305C0.668728 18.7488 0.952932 19.1653 1.13379 19.2837C1.20269 19.3648 1.38701 19.5269 1.57303 19.5269C1.80556 19.5269 1.88307 19.4334 2.03809 19.2837C2.16211 19.164 2.38258 18.9346 2.47732 18.8348L3.48495 17.6751C3.89834 17.2137 5.00933 16.1413 6.14614 15.5428C7.28296 14.9442 7.99778 14.6574 8.21309 14.5888C8.72121 14.4516 9.8098 14.1586 10.0992 14.0838C10.3885 14.009 10.9776 13.9279 11.236 13.8967L12.6829 13.8406C12.8637 13.8344 13.3081 13.807 13.6388 13.7471C14.0522 13.6723 14.4398 13.56 14.8531 13.3917C15.2665 13.2234 15.1374 13.3356 15.9125 12.8493C16.6876 12.3629 17.0234 11.9701 17.2301 11.7644C17.3955 11.5998 17.7296 11.197 17.876 11.0162C17.9966 10.773 18.2481 10.2717 18.2894 10.2119C18.3308 10.152 18.41 10.1869 18.4445 10.2119C18.9009 10.7294 19.9223 11.8317 20.3564 12.1011C20.8954 12.4355 21.1539 12.4931 21.4866 12.5672L21.4932 12.5687C21.7619 12.6285 22.1563 12.5936 22.32 12.5687C22.4233 12.5438 22.6507 12.4827 22.7334 12.4378C22.816 12.3929 22.8367 12.4565 22.8367 12.4939C23.0606 13.373 24.0304 15.4231 26.118 16.5902C28.7275 18.0492 31.1045 18.4981 31.5954 18.6478C32.0863 18.7974 35.5484 19.4334 36.4785 19.3585C37.4087 19.2837 37.3053 19.2089 37.5379 18.8722C37.7704 18.5355 37.6412 18.3485 37.6412 18.0866C37.6412 17.8248 37.2795 17.619 37.0728 17.5255C36.8661 17.4319 36.2202 17.2823 36.091 17.2636C35.9618 17.2449 34.9542 17.0391 34.6441 16.983C34.3341 16.9269 33.6623 16.5715 33.4556 16.4593C33.2489 16.3471 33.0423 16.16 32.4997 15.6924C32.0656 15.3183 31.337 14.514 31.027 14.1586C30.5878 13.6224 29.6783 12.5275 29.5543 12.4378C29.4303 12.348 29.5026 12.2632 29.5543 12.232L30.6911 10.7543C30.9236 10.3865 31.4094 9.48988 31.492 8.84643C31.5747 8.20298 31.4576 7.58074 31.3887 7.35004C31.3198 6.97595 31.1665 6.1866 31.1045 6.022C31.027 5.81625 31.0787 4.78748 31.1045 4.67525C31.1303 4.56302 31.182 4.37598 31.3887 4.28245C31.5954 4.18893 31.6471 4.20763 31.9829 4.24504C32.2516 4.27497 32.4566 4.43209 32.5255 4.50691C32.5514 4.53808 32.6909 4.67151 33.0423 4.95583C33.4815 5.31122 33.6365 5.6292 34.4374 6.43351C35.2384 7.23782 35.7809 7.51839 36.1427 7.70544C36.5044 7.89248 37.2536 8.06083 37.7445 8.11694C38.1373 8.16183 38.8039 8.09824 39.0881 8.06083L39.3723 7.98601C39.3981 7.98601 39.4601 7.99349 39.5014 8.02342C39.1397 8.26035 38.3595 9.03348 38.1321 10.2306C37.8479 11.727 38.3646 11.9327 39.0105 12.868C39.6502 13.7942 40.3152 14.3718 40.579 14.6009L40.5866 14.6075C40.7933 14.7871 41.0517 14.8819 41.155 14.9068C41.2584 14.9255 41.5219 14.9255 41.7492 14.7759C42.0335 14.5888 42.1885 14.2895 42.2402 14.1773C42.2815 14.0875 42.3263 13.8157 42.3435 13.691C42.3607 13.5164 42.4003 13.0849 42.421 12.7557C42.4468 12.3442 42.421 12.6061 42.8086 12.1572C43.1961 11.7083 43.0669 11.8205 43.1961 11.6709C43.3253 11.5212 43.2995 11.3903 43.3511 11.2968C43.4028 11.2032 43.2995 11.2219 43.3511 10.9414C43.3925 10.7169 43.2995 10.4862 43.2478 10.3989C43.0841 9.93131 42.7569 8.97736 42.7569 8.90255C42.7569 8.80902 42.7052 8.69679 42.8086 8.64068C42.9119 8.58456 42.9894 8.60327 43.1186 8.58456C43.2219 8.5696 43.2478 8.65315 43.2478 8.69679L43.9712 10.0061C44.264 10.4925 44.9375 11.5549 45.2889 11.914C45.7281 12.3629 46.1157 12.4939 46.374 12.6061C46.6324 12.7183 46.6324 12.6809 46.8649 12.6809C47.0975 12.6809 46.9941 12.6435 47.4075 12.7557C47.8209 12.868 47.8726 13.1111 48.0018 13.186C48.1309 13.2608 48.751 14.0464 49.7845 15.2622C50.818 16.478 51.9031 16.8708 52.0323 16.9269C52.1615 16.983 52.7299 17.0953 53.0658 17.0953C53.4016 17.0953 53.4533 16.9643 53.5825 16.8708C53.6858 16.796 53.7289 16.6651 53.7375 16.6089C53.7634 16.4655 53.8099 16.1525 53.7892 16.0478C53.7685 15.943 53.6428 15.8046 53.5825 15.7485L50.3012 12.5687L47.6659 10.0061C46.3913 8.70926 43.7283 6.09308 43.2736 6.0033C42.7052 5.89107 42.5502 5.98459 42.2143 6.05941C41.8784 6.13423 41.5167 6.3961 41.4134 6.43351C41.31 6.47092 41.3359 6.43351 41.31 6.43351C41.2842 6.43351 41.2584 6.32128 41.2067 6.26516C41.155 6.20905 41.0775 6.09682 40.9225 6.05941C40.7675 6.022 40.7675 6.05941 40.5349 6.05941C40.3024 6.05941 39.579 6.04071 38.9847 5.94718C38.3905 5.85366 37.2795 5.44215 37.1761 5.40474C37.0935 5.37481 36.625 5.11793 36.401 4.99324C36.2891 4.91218 35.9618 4.66403 35.5484 4.31986C35.135 3.97569 34.5149 3.29109 34.2566 2.99181C33.6623 2.23738 32.2878 0.747232 31.5437 0.822051C30.6136 0.915575 30.6653 1.0091 30.5102 1.06521C30.3552 1.12133 30.0969 1.25226 29.5284 1.81341C29.0737 2.26232 28.8567 2.5616 28.805 2.65512C28.5639 3.02922 27.9576 3.93454 27.4615 4.56302C26.8414 5.34862 26.4022 5.6479 26.273 5.76013C26.1438 5.87236 25.6788 6.26516 24.1544 7.53709C22.63 8.80901 22.8884 8.69679 22.63 8.95865C22.3717 9.22052 22.2683 9.48239 22.2166 9.61332C22.1753 9.71807 22.165 9.81908 22.165 9.85649V10.4737C22.1822 10.5735 22.1805 10.7581 22.0358 10.6982C21.8911 10.6383 21.8549 10.5735 21.8549 10.5486L21.4415 10.0996L20.899 9.48239L20.3305 8.7529L19.788 7.74284L18.8062 6.32127C18.6167 6.10305 18.1448 5.66286 17.7727 5.6479C17.3076 5.62919 17.3852 5.68531 17.1268 5.79754C16.8684 5.90977 16.7651 6.022 16.6617 6.09682C16.5584 6.17163 16.4034 6.33998 16.2742 6.4335C16.1708 6.50832 15.4905 7.12558 15.1632 7.42486C15.0512 7.51838 14.7911 7.7391 14.6465 7.87377C14.5018 8.00845 13.0704 8.81525 12.3728 9.20182C11.0896 9.96248 8.24926 11.6222 7.15378 12.1759C5.78443 12.868 4.54426 13.691 4.02753 14.009C3.61414 14.2633 3.18352 14.7384 3.01989 14.9442L2.08977 16.1974C1.84862 16.5092 1.28881 17.3122 0.978769 18.0305Z" fill="#E4002B"/>
<path d="M2.46216 17.2854C2.38562 17.4005 2.46216 17.4719 2.50999 17.4932L2.62958 17.4772L2.74917 17.3813C2.85281 17.2907 3.19404 16.9464 3.72979 16.2942C4.39949 15.4788 4.63867 15.4468 4.97351 15.1591C5.30836 14.8713 5.83455 14.5675 6.09764 14.4076C6.30812 14.2797 6.72748 14.0666 6.91085 13.976C6.99057 13.944 7.30788 13.8097 7.93931 13.5283C8.57074 13.247 9.35045 13.0594 9.66138 13.0008C9.86867 12.9528 10.3215 12.8473 10.4746 12.8089C10.6659 12.7609 11.7183 12.633 12.0053 12.6171C12.2349 12.6043 12.4677 12.5904 12.5554 12.5851C12.7627 12.5957 13.2251 12.6107 13.4165 12.5851C13.6078 12.5595 13.9427 12.4785 14.0862 12.4412C14.0463 12.4678 14.1436 12.4508 14.8515 12.1694C15.7365 11.8177 16.4062 11.2421 16.7649 10.9224C17.052 10.6666 17.3629 10.187 17.4825 9.97913L17.7695 9.40358C17.8891 9.28101 18.2335 9.18296 18.6544 9.77129C19.1806 10.5067 20.0895 11.1942 20.4483 11.354C20.807 11.5139 21.6202 11.5459 21.9072 11.5299C22.1369 11.5171 21.971 11.4819 21.8594 11.466C21.7319 11.4233 21.4193 11.3029 21.1897 11.1622C20.9027 10.9863 20.3526 10.5707 19.5872 9.48352C18.8219 8.39637 18.4631 7.66096 17.9369 7.24527C17.549 6.93884 17.3629 6.93086 17.2672 6.98948C17.2752 6.96284 16.985 7.14616 15.7604 8.09261C14.5358 9.03907 13.56 9.54214 13.2251 9.67537L9.15911 11.8177L6.67167 13.1446L5.54754 13.7362C5.37214 13.8374 4.93524 14.1135 4.59083 14.4076C4.16031 14.7754 3.75371 15.3669 3.25144 16.0543C2.74917 16.7418 2.55783 17.1415 2.46216 17.2854Z" fill="#161616"/>
<path d="M39.5504 11.7924C39.7964 12.0451 40.3468 12.7402 40.5912 13.0561L40.9223 13.3222C41.0248 13.4219 41.2724 13.5982 41.4427 13.5051C41.6556 13.3887 41.6556 13.1725 41.7029 13.0894C41.7408 13.0229 41.7818 12.7624 41.7975 12.6404C41.7975 12.4187 41.8023 11.9487 41.8212 11.8423C41.8449 11.7092 42.0814 11.3434 42.3416 11.2104C42.599 11.0788 42.6249 10.9146 42.6483 10.7662L42.6491 10.7614C42.6727 10.6118 42.5308 10.2958 42.3652 9.91338C42.1997 9.53093 42.0814 8.96557 42.0814 8.64963C42.0814 8.33369 42.2233 8.16741 42.3179 8.01776C42.3936 7.89803 42.6018 7.85702 42.6964 7.85147C42.7753 7.84593 42.9708 7.8415 43.1222 7.8681C43.2736 7.89471 43.4376 8.1009 43.5006 8.20067L44.5414 9.94664C44.7307 10.257 45.2179 10.941 45.6532 11.1938C46.1972 11.5097 46.4338 11.5429 46.7413 11.5429C47.0488 11.5429 47.1197 11.6593 47.3799 11.7924C47.5881 11.8988 48.129 12.4353 48.3734 12.6903C48.8938 13.3 50.0671 14.6092 50.5969 14.9684C51.2592 15.4173 51.8033 15.4672 52.0398 15.4838C52.2764 15.5005 52.2054 15.4506 52.1581 15.3841C52.1202 15.3309 48.7834 12.2136 47.1197 10.6617C45.9765 9.62516 43.6236 7.48565 43.3587 7.2196C43.0276 6.88703 42.7674 6.97018 42.6728 6.97018C42.5781 6.97018 42.2706 7.05332 41.8922 7.2196C41.5894 7.35263 40.946 7.78496 40.6621 7.9845L39.7396 8.94894C39.5504 9.2039 39.1388 9.84686 39.0064 10.379C38.8408 11.0441 39.2429 11.4764 39.5504 11.7924Z" fill="#161616"/>
<path d="M23.1156 10.613C23.1756 11.0653 23.7569 12.2212 24.0401 12.7426C24.0401 12.7614 24.115 12.9235 24.4149 13.421C24.7147 13.9186 25.5059 14.8596 25.864 15.268C26.4137 15.7454 28.1877 16.8812 30.8862 17.6049C34.2593 18.5095 35.8084 18.453 36.458 18.4907C37.1077 18.5284 36.9078 18.3776 36.8078 18.2834C36.7079 18.1891 36.3081 18.0384 35.5336 17.9441C34.759 17.8499 33.7096 17.5295 33.1599 17.1526C32.6102 16.7757 31.3859 15.5884 30.6114 14.533C29.8368 13.4776 28.9873 12.6107 28.9623 12.5164C28.9373 12.4222 28.6625 12.328 29.2621 11.5553C29.8618 10.7826 30.4115 10.0099 30.7613 9.27488C31.0411 8.68688 30.9278 7.74834 30.8362 7.35257C30.7113 6.96936 30.4614 6.02579 30.4614 5.31718C30.4614 4.60856 30.6447 4.02935 30.7363 3.82833C30.8362 3.64615 31.156 3.27425 31.6358 3.24409C32.2354 3.2064 32.2854 3.43255 32.8601 3.6964C33.4348 3.96025 34.3093 5.16641 34.6091 5.56218C34.849 5.87879 35.6418 6.48564 36.0083 6.74949C36.3914 6.92538 37.3525 7.26587 38.1321 7.22064C39.1065 7.1641 39.8311 6.88141 39.981 6.86256C40.101 6.84749 40.4141 6.7809 40.5557 6.74949C40.5307 6.72436 40.4508 6.6741 40.3308 6.6741C40.1809 6.6741 38.332 6.50449 37.6324 6.35372C36.9328 6.20295 35.1588 5.14756 34.2093 3.9414C33.2599 2.73525 32.3104 1.60447 31.8856 1.49139C31.4609 1.37831 31.0361 1.47254 30.5864 1.73639C30.2266 1.94747 29.6702 2.66614 29.437 2.99909C29.1122 3.4828 28.4326 4.51055 28.3127 4.75178C28.1627 5.05332 26.7635 6.37256 26.4137 6.6741C26.0639 6.97563 23.7652 9.04872 23.4154 9.40679C23.0656 9.76487 23.0406 10.0476 23.1156 10.613Z" fill="#161616"/>
</svg>
