<svg width="60" height="60" viewBox="0 0 60 60" fill="none" xmlns="http://www.w3.org/2000/svg">
<g clip-path="url(#clip0_1247_6688)">
<path d="M33.5379 19.7054L19.7054 33.538L1.72311 15.5556C-0.573066 13.2594 -0.573066 9.55217 1.72311 7.256L7.256 1.72311C9.55217 -0.573066 13.2594 -0.573066 15.5556 1.72311L33.5379 19.7054Z" fill="#FF6243"/>
<path d="M26.6217 26.6204L19.7054 33.5367L1.72311 15.5543C-0.573066 13.2581 -0.573066 9.5509 1.72311 7.25473L4.48955 4.48828L26.6217 26.6204Z" fill="#FF3501"/>
<path d="M25.2374 28.0041L8.17745 10.9439C7.41351 10.18 7.41351 8.9414 8.17745 8.17745C8.9414 7.41351 10.18 7.41351 10.9439 8.17745L28.0041 25.2376L25.2374 28.0041Z" fill="#6E6057"/>
<path d="M8.17745 8.17773C7.41351 8.94168 7.41351 10.1802 8.17745 10.9442L25.2376 28.0043L26.6209 26.6211L8.17745 8.17773Z" fill="#615349"/>
<path d="M59.4218 53.8889L53.8888 59.4219C53.2524 60.0582 52.275 60.1873 51.5096 59.717L37.7509 51.4912C37.1607 51.1409 36.8011 50.5044 36.8011 49.822V45.1005L30.0047 38.3041C29.2393 37.5388 29.2393 36.3029 30.0047 35.5377L35.5377 30.0047C36.303 29.2393 37.5389 29.2393 38.3041 30.0047L45.1005 36.8011H49.822C50.5045 36.8011 51.1407 37.1607 51.4912 37.7509L59.717 51.5096C60.1872 52.275 60.0581 53.2526 59.4218 53.8889Z" fill="#B1C6E4"/>
<path d="M56.6562 56.6557L53.8898 59.4221C53.2534 60.0585 52.276 60.1875 51.5106 59.7172L37.7519 51.4915C37.1617 51.1411 36.8021 50.5046 36.8021 49.8223V45.1008L30.0057 38.3044C29.2403 37.539 29.2403 36.3032 30.0057 35.5379L32.7721 32.7715L56.6562 56.6557Z" fill="#9DB0CA"/>
<path d="M59.0834 10.391C58.6131 9.0539 56.8794 8.6482 55.8558 9.6716L47.8605 17.6668L43.2405 16.7539L42.3277 12.1339L50.3229 4.13871C51.3373 3.12433 50.95 1.39066 49.6035 0.911132C43.9321 -1.10848 37.5322 0.330116 33.281 4.58133C29.3341 8.5282 27.8126 14.347 29.2419 19.6864L12.3756 36.553C12.1727 36.5345 11.9606 36.5253 11.7393 36.5253C5.26559 36.5252 0 41.7909 0 48.2645C0.00925781 51.5013 1.31871 54.4338 3.43969 56.5548C5.56066 58.6758 8.49316 59.9852 11.73 59.9945C18.2037 59.9945 23.4693 54.729 23.4693 48.2553C23.4693 48.0339 23.4601 47.8219 23.4416 47.619L40.308 30.7526C45.6566 32.1912 51.4663 30.6603 55.4132 26.7135C59.6644 22.4621 61.103 16.0623 59.0834 10.391ZM11.73 52.1746C10.6511 52.1837 9.67359 51.7412 8.96355 51.0311C8.2534 50.3209 7.8109 49.3434 7.82004 48.2646C7.82004 46.1067 9.58137 44.3454 11.7393 44.3454C12.8091 44.3454 13.7957 44.7787 14.5057 45.4889C15.2159 46.1991 15.6492 47.1855 15.6492 48.2553C15.6492 50.4132 13.8879 52.1744 11.73 52.1746Z" fill="#DBE9FD"/>
<path d="M59.083 10.3901C58.6127 9.05296 56.8791 8.64725 55.8554 9.67065L47.8602 17.6659L43.2402 16.753L14.5055 45.4878C15.2156 46.198 15.649 47.1845 15.649 48.2543C15.649 50.4122 13.8877 52.1734 11.7298 52.1735C10.6508 52.1826 9.67336 51.7401 8.96332 51.03L3.43945 56.5538C5.56043 58.6748 8.49293 59.9843 11.7298 59.9935C18.2034 59.9935 23.469 54.7281 23.469 48.2544C23.469 48.0329 23.4599 47.8209 23.4414 47.6181L40.3078 30.7516C45.6564 32.1902 51.4661 30.6594 55.4129 26.7125C59.664 22.4612 61.1026 16.0614 59.083 10.3901Z" fill="#C5DCFD"/>
</g>
<defs>
<clipPath id="clip0_1247_6688">
<rect width="60" height="60" fill="white"/>
</clipPath>
</defs>
</svg>
