<svg width="90" height="90" viewBox="0 0 90 90" fill="none" xmlns="http://www.w3.org/2000/svg">
<path d="M37.6701 41.8781C39.2252 41.8781 40.4858 40.6429 40.4858 39.1192C40.4858 37.5955 39.2252 36.3604 37.6701 36.3604C36.1151 36.3604 34.8545 37.5955 34.8545 39.1192C34.8545 40.6429 36.1151 41.8781 37.6701 41.8781Z" fill="#161616"/>
<path d="M55.7141 53.4787C57.2691 53.4787 58.5297 52.2435 58.5297 50.7198C58.5297 49.1961 57.2691 47.9609 55.7141 47.9609C54.159 47.9609 52.8984 49.1961 52.8984 50.7198C52.8984 52.2435 54.159 53.4787 55.7141 53.4787Z" fill="#161616"/>
<path d="M78.3523 48.6447L77.3309 47.2788C76.2267 45.7911 76.1991 43.7761 77.2895 42.2614L78.2832 40.882C79.8015 38.7723 79.0976 35.8376 76.765 34.6069L75.2468 33.809C73.5905 32.9435 72.6796 31.1313 72.997 29.3056L73.2869 27.6421C73.7285 25.0997 71.7824 22.7465 69.1462 22.6383L67.421 22.5707C65.5439 22.4895 63.9152 21.2454 63.3907 19.4737L62.9077 17.8509C62.1762 15.3625 59.3881 14.0777 56.959 15.1055L55.3717 15.7682C53.6465 16.4985 51.6313 16.0657 50.3753 14.6863L49.2298 13.4286C47.4769 11.5082 44.399 11.5217 42.66 13.4827L41.5282 14.7539C40.286 16.1469 38.2847 16.6067 36.5456 15.9034L34.9446 15.2543C32.5016 14.267 29.7412 15.6059 29.0372 18.0943L28.5818 19.7307C28.0849 21.5158 26.4839 22.7871 24.6068 22.8817L22.8815 22.9764C20.2453 23.1252 18.3406 25.5054 18.8237 28.0478L19.1411 29.7113C19.4862 31.5235 18.6028 33.3492 16.9604 34.2418L15.456 35.0667C13.151 36.3244 12.4885 39.2726 14.0481 41.3553L15.0695 42.7212C16.1737 44.2089 16.2013 46.2239 15.1109 47.7386L14.1171 49.118C12.5989 51.2277 13.3028 54.1624 15.6354 55.3931L17.1536 56.191C18.8099 57.0565 19.7208 58.8687 19.4034 60.6944L19.1135 62.3579C18.6718 64.9003 20.6179 67.2535 23.2542 67.3617L24.9794 67.4293C26.8565 67.5104 28.4852 68.7546 29.0096 70.5263L29.4927 72.1491C30.2242 74.6375 33.0123 75.9223 35.4414 74.8945L37.0287 74.2318C38.7539 73.5015 40.7691 73.9343 42.0251 75.3137L43.1706 76.5714C44.9373 78.4918 48.0152 78.4783 49.7404 76.5173L50.8722 75.2461C52.1144 73.8531 54.1157 73.3933 55.8548 74.0966L57.4558 74.7457C59.8988 75.733 62.6592 74.3941 63.3631 71.9057L63.8186 70.2693C64.3155 68.4842 65.9165 67.2129 67.7936 67.1183L69.5189 67.0236C72.1551 66.8748 74.0598 64.4946 73.5767 61.9521L73.2593 60.2887C72.9142 58.4765 73.7976 56.6508 75.44 55.7582L76.9444 54.9333C79.2494 53.6891 79.9119 50.7409 78.3523 48.6447ZM30.4451 39.3944C30.4451 35.7159 33.4815 32.7406 37.2357 32.7406C40.9899 32.7406 44.0264 35.7159 44.0264 39.3944C44.0264 43.0729 40.9899 46.0481 37.2357 46.0481C33.4815 46.0481 30.4451 43.0593 30.4451 39.3944ZM38.5469 56.5561C37.9672 57.2458 36.9183 57.3405 36.2144 56.7725C35.5104 56.2045 35.4138 55.1767 35.9935 54.487L53.8121 33.4574C54.3918 32.7677 55.4407 32.673 56.1446 33.241C56.8485 33.809 56.9452 34.8368 56.3655 35.5265L38.5469 56.5561ZM55.1371 57.2458C51.3829 57.2458 48.3464 54.2706 48.3464 50.5921C48.3464 46.9136 51.3829 43.9384 55.1371 43.9384C58.8913 43.9384 61.9277 46.9136 61.9277 50.5921C61.9277 54.2706 58.8913 57.2458 55.1371 57.2458Z" fill="#161616"/>
<path d="M34.8488 39.7531C36.4039 39.7531 37.6645 38.5179 37.6645 36.9942C37.6645 35.4705 36.4039 34.2354 34.8488 34.2354C33.2938 34.2354 32.0332 35.4705 32.0332 36.9942C32.0332 38.5179 33.2938 39.7531 34.8488 39.7531Z" fill="#FBE739"/>
<path d="M52.7346 50.9504C54.2896 50.9504 55.5502 49.7152 55.5502 48.1915C55.5502 46.6678 54.2896 45.4326 52.7346 45.4326C51.1795 45.4326 49.9189 46.6678 49.9189 48.1915C49.9189 49.7152 51.1795 50.9504 52.7346 50.9504Z" fill="#FBE739"/>
<path d="M75.9519 46.2443L74.9305 44.8784C73.8263 43.3908 73.7987 41.3757 74.8891 39.861L75.8829 38.4816C77.4011 36.3719 76.6972 33.4372 74.3646 32.2065L72.8464 31.4086C71.1901 30.5431 70.2792 28.7309 70.5966 26.9052L70.8865 25.2417C71.3282 22.6993 69.3821 20.3461 66.7458 20.2379L65.0206 20.1703C63.1435 20.0892 61.5148 18.845 60.9904 17.0733L60.5073 15.4505C59.7758 12.9621 56.9877 11.6773 54.5586 12.7051L52.9713 13.3678C51.2461 14.0981 49.2309 13.6653 47.975 12.2859L46.8294 11.0282C45.0765 9.10779 41.9986 9.12131 40.2596 11.0823L39.1278 12.3535C37.8856 13.7465 35.8843 14.2063 34.1452 13.503L32.5442 12.8539C30.1012 11.8667 27.3408 13.2055 26.6369 15.6939L26.1814 17.3303C25.6845 19.1154 24.0835 20.3867 22.2064 20.4813L20.4811 20.576C17.8449 20.7248 15.9402 23.105 16.4233 25.6475L16.7407 27.3109C17.0858 29.1231 16.2024 30.9488 14.56 31.8414L13.0556 32.6663C10.7506 33.9241 10.0881 36.8723 11.6477 38.9549L12.6691 40.3208C13.7733 41.8085 13.8009 43.8235 12.7105 45.3382L11.7168 46.7176C10.1985 48.8273 10.9024 51.762 13.235 52.9927L14.7532 53.7906C16.4095 54.6561 17.3204 56.4683 17.003 58.294L16.7131 59.9575C16.2715 62.5 18.2176 64.8531 20.8538 64.9613L22.579 65.0289C24.4561 65.1101 26.0848 66.3543 26.6093 68.1259L27.0923 69.7487C27.8238 72.2371 30.6119 73.5219 33.041 72.4941L34.6283 71.8314C36.3536 71.1011 38.3687 71.5339 39.6247 72.9133L40.7702 74.171C42.5369 76.0914 45.6148 76.0779 47.3401 74.1169L48.4718 72.8457C49.714 71.4527 51.7153 70.9929 53.4544 71.6962L55.0554 72.3453C57.4984 73.3326 60.2588 71.9937 60.9628 69.5053L61.4182 67.8689C61.9151 66.0838 63.5162 64.8125 65.3932 64.7179L67.1185 64.6232C69.7547 64.4744 71.6594 62.0942 71.1763 59.5518L70.8589 57.8883C70.5138 56.0761 71.3972 54.2504 73.0396 53.3578L74.544 52.5329C76.849 51.2887 77.5115 48.3405 75.9519 46.2443ZM28.0447 36.994C28.0447 33.3155 31.0811 30.3402 34.8353 30.3402C38.5895 30.3402 41.626 33.3155 41.626 36.994C41.626 40.6725 38.5895 43.6477 34.8353 43.6477C31.0811 43.6477 28.0447 40.6589 28.0447 36.994ZM36.1465 54.1557C35.5668 54.8455 34.5179 54.9401 33.814 54.3721C33.1101 53.8041 33.0134 52.7763 33.5931 52.0866L51.4117 31.057C51.9914 30.3673 53.0403 30.2726 53.7442 30.8406C54.4481 31.4086 54.5448 32.4364 53.9651 33.1262L36.1465 54.1557ZM52.7367 54.8455C48.9825 54.8455 45.946 51.8702 45.946 48.1917C45.946 44.5132 48.9825 41.538 52.7367 41.538C56.4909 41.538 59.5273 44.5132 59.5273 48.1917C59.5273 51.8702 56.4909 54.8455 52.7367 54.8455Z" fill="#FBE739"/>
</svg>
