<svg width="50" height="50" viewBox="0 0 50 50" fill="none" xmlns="http://www.w3.org/2000/svg">
<g clip-path="url(#clip0_1247_6724)">
<path d="M50 16.1133L48.4891 14.6484H42.2191L41.2109 16.1133V25.0977L42.2637 26.5625H48.3981L50 25.0977V16.1133Z" fill="#FEA832"/>
<path d="M41.2109 42.6758C41.2109 43.4854 41.8661 44.1406 42.6758 44.1406H45.6055C48.0287 44.1406 50 42.1693 50 39.7461V33.8867L48.4877 32.4219H42.3107L41.2109 33.8867V42.6758Z" fill="#FEA832"/>
<path d="M50 10.2539C50 7.83066 48.0287 5.85938 45.6055 5.85938H42.6758C41.8661 5.85938 41.2109 6.51455 41.2109 7.32422V16.1133H50V10.2539Z" fill="#FFCC33"/>
<path d="M50 25.0977H41.2109V33.8867H50V25.0977Z" fill="#FFCC33"/>
<path d="M39.7461 0H8.78906C6.35723 0 4.39453 1.96279 4.39453 4.39453V45.6055C4.39453 48.037 6.35723 50 8.78906 50H39.7461C42.1779 50 44.1406 48.037 44.1406 45.6055V4.39453C44.1406 1.96279 42.1779 0 39.7461 0Z" fill="#FD003A"/>
<path d="M44.1406 25.0977V45.6055C44.1406 48.037 42.1779 50 39.7461 50H8.78906C6.35723 50 4.39453 48.037 4.39453 45.6055V25.0977H44.1406Z" fill="#E50027"/>
<path d="M11.7188 28.0273H2.92969C1.31162 28.0273 0 26.7157 0 25.0977C0 23.4796 1.31162 22.168 2.92969 22.168H11.7188C13.3368 22.168 14.6484 23.4796 14.6484 25.0977C14.6484 26.7157 13.3368 28.0273 11.7188 28.0273Z" fill="#B7E0F6"/>
<path d="M2.92969 28.0273H11.7188C13.3366 28.0273 14.6484 26.7155 14.6484 25.0977H0C0 26.7155 1.31182 28.0273 2.92969 28.0273Z" fill="#A4D9F5"/>
<path d="M30.957 20.5078C33.3889 20.5078 35.3516 18.5448 35.3516 16.1133V13.1836C35.3516 10.7519 33.3889 8.78906 30.957 8.78906C25.3029 8.78906 20.7031 13.3887 20.7031 19.043V30.957C20.7031 36.6113 25.3029 41.2109 30.957 41.2109C33.3889 41.2109 35.3516 39.2479 35.3516 36.8164V33.8867C35.3516 31.455 33.3889 29.4922 30.957 29.4922C30.1366 29.4922 29.4922 28.8476 29.4922 28.0273V22.168C29.4922 21.3476 30.1366 20.5078 30.957 20.5078Z" fill="#CAE8F9"/>
<path d="M20.7031 25.0977V30.957C20.7031 36.6113 25.3029 41.2109 30.957 41.2109C33.3889 41.2109 35.3516 39.2479 35.3516 36.8164V33.8867C35.3516 31.455 33.3889 29.4922 30.957 29.4922C30.1366 29.4922 29.4922 28.8476 29.4922 28.0273V25.0977H20.7031Z" fill="#B7E0F6"/>
<path d="M11.7188 13.1836H2.92969C1.31162 13.1836 0 11.872 0 10.2539C0 8.63584 1.31162 7.32422 2.92969 7.32422H11.7188C13.3368 7.32422 14.6484 8.63584 14.6484 10.2539C14.6484 11.872 13.3368 13.1836 11.7188 13.1836Z" fill="#B7E0F6"/>
<path d="M11.7188 42.6758H2.92969C1.31162 42.6758 0 41.3642 0 39.7461C0 38.128 1.31162 36.8164 2.92969 36.8164H11.7188C13.3368 36.8164 14.6484 38.128 14.6484 39.7461C14.6484 41.3642 13.3368 42.6758 11.7188 42.6758Z" fill="#A4D9F5"/>
</g>
<defs>
<clipPath id="clip0_1247_6724">
<rect width="50" height="50" fill="white"/>
</clipPath>
</defs>
</svg>
