<svg width="18" height="18" viewBox="0 0 18 18" fill="none" xmlns="http://www.w3.org/2000/svg">
<path d="M9.9971 1.09455C9.9971 0.543907 9.55072 0.0975259 9.00008 0.0975257C8.44944 0.0975254 8.00306 0.543907 8.00306 1.09455L8.00306 7.00298C8.00306 7.55526 7.55534 8.00298 7.00306 8.00298L1.09463 8.00298C0.543988 8.00298 0.0976064 8.44936 0.0976064 9C0.0976064 9.55064 0.543988 9.99702 1.09463 9.99702L7.00306 9.99702C7.55535 9.99702 8.00306 10.4447 8.00306 10.997L8.00306 16.9055C8.00306 17.4561 8.44944 17.9025 9.00008 17.9025C9.55072 17.9025 9.9971 17.4561 9.9971 16.9055V10.997C9.9971 10.4447 10.4448 9.99702 10.9971 9.99702H16.9055C17.4562 9.99702 17.9026 9.55064 17.9026 9C17.9026 8.44936 17.4562 8.00298 16.9055 8.00298H10.9971C10.4448 8.00298 9.9971 7.55526 9.9971 7.00298V1.09455Z" fill="black"/>
</svg>
