<svg width="60" height="60" viewBox="0 0 60 60" fill="none" xmlns="http://www.w3.org/2000/svg">
<g clip-path="url(#clip0_1247_6626)">
<path d="M42.197 41.8141V49.8566C42.197 50.7037 41.5104 51.3892 40.6645 51.3892H19.7591C18.9132 51.3892 18.2266 50.7037 18.2266 49.8566V41.8141C18.2266 31.1277 31.193 25.8456 38.6867 33.3393C40.9504 35.6031 42.197 38.6119 42.197 41.8141Z" fill="#F0F7FF"/>
<path d="M42.197 10.1429V18.1959C42.197 18.6529 42.1713 19.1157 42.1185 19.5703C41.4284 25.6198 36.3093 30.1812 30.2118 30.1812C24.1143 30.1812 18.9952 25.6198 18.3051 19.5691C18.2523 19.1146 18.2266 18.6517 18.2266 18.1959V10.1429C18.2266 9.29695 18.9132 8.61035 19.7591 8.61035H40.6645C41.5104 8.61035 42.197 9.29695 42.197 10.1429Z" fill="#F0F7FF"/>
<path d="M42.1962 10.1429V18.1959C42.1962 18.6529 42.1704 19.1157 42.1177 19.5703C41.4275 25.6198 36.3084 30.1812 30.2109 30.1812V8.61035H40.6636C41.5096 8.61035 42.1962 9.29695 42.1962 10.1429Z" fill="#DFE7F4"/>
<path d="M42.1962 41.8143V49.8568C42.1962 50.7039 41.5096 51.3894 40.6636 51.3894H30.2109V29.8291C33.412 29.8291 36.422 31.0757 38.6858 33.3395C40.9496 35.6032 42.1962 38.6121 42.1962 41.8143Z" fill="#DFE7F4"/>
<path d="M42.1181 19.3965C41.4362 25.3686 36.3652 30.0062 30.2114 30.0062C24.0577 30.0062 18.9866 25.3686 18.3047 19.3965H42.1181Z" fill="#FFE14D"/>
<path d="M42.197 51.2131H18.2266L27.2802 44.2063C28.1731 43.6311 29.1924 43.3428 30.2118 43.3428C31.2312 43.3428 32.2505 43.6311 33.1422 44.2063L42.197 51.2131Z" fill="#FFE14D"/>
<path d="M30.2109 30.0062V19.3965H42.1177C41.4357 25.3686 36.3647 30.0062 30.2109 30.0062Z" fill="#FABE2C"/>
<path d="M42.1962 51.2131H30.2109V43.3428C31.2304 43.3428 32.2496 43.6311 33.1413 44.2063L42.1962 51.2131Z" fill="#FABE2C"/>
<path d="M31.9693 30.0047V35.7963C31.9693 36.7665 31.1819 37.5539 30.2117 37.5539C29.2403 37.5539 28.4541 36.7665 28.4541 35.7963V30.0047C28.4541 29.0345 29.2403 28.2471 30.2117 28.2471C31.1819 28.2471 31.9693 29.0345 31.9693 30.0047Z" fill="#FFE14D"/>
<path d="M31.9685 30.0047V35.7963C31.9685 36.7665 31.1811 37.5539 30.2109 37.5539V28.2471C31.1811 28.2471 31.9685 29.0345 31.9685 30.0047Z" fill="#FABE2C"/>
<path d="M42.1968 7.0293H18.2263C17.255 7.0293 16.4688 7.81668 16.4688 8.78688V18.021C16.4688 18.5436 16.498 19.0732 16.5578 19.5958C17.0745 24.1185 19.7484 27.916 23.4849 30.0098C25.4663 31.1229 27.7463 31.7556 30.1623 31.7638H30.2596C37.2169 31.7403 43.0732 26.5285 43.8641 19.597C43.9239 19.0756 43.9544 18.5447 43.9544 18.021V8.78676C43.9544 7.81668 43.167 7.0293 42.1968 7.0293ZM40.4392 18.0209C40.4392 18.4123 40.4158 18.8071 40.3713 19.1972C39.7843 24.3409 35.4419 28.224 30.2618 28.2486H30.1599C24.9787 28.2228 20.6376 24.3398 20.0505 19.1972C20.0059 18.807 19.9837 18.411 19.9837 18.0209V9.37258H40.4391V18.0209H40.4392Z" fill="#6AA9FF"/>
<path d="M39.9284 32.2729C37.3775 29.722 33.9596 28.259 30.262 28.2482C30.2455 28.2471 30.228 28.2471 30.2116 28.2471C30.194 28.2471 30.1776 28.2471 30.16 28.2482C27.7369 28.2564 25.4603 28.895 23.4849 30.0093C19.3008 32.368 16.4688 36.8544 16.4688 41.9899V51.2123C16.4688 52.1837 17.255 52.9699 18.2263 52.9699H42.1968C43.167 52.9699 43.9544 52.1837 43.9544 51.2123V41.9899C43.9544 38.32 42.5249 34.8683 39.9284 32.2729ZM40.4392 50.6264H19.9839V41.9899C19.9839 36.3669 24.5453 31.7892 30.1623 31.7634C30.1788 31.7622 30.1952 31.7622 30.2116 31.7622C30.228 31.7622 30.2432 31.7622 30.2596 31.7634C32.9732 31.7751 35.5229 32.8378 37.4432 34.7582C39.3754 36.6904 40.4392 39.2587 40.4392 41.99V50.6264Z" fill="#6AA9FF"/>
<path d="M36.947 30.005C38.0262 30.6142 39.0279 31.3735 39.9278 32.2734C42.5242 34.8687 43.9536 38.3205 43.9536 41.9902V51.2126C43.9536 52.184 43.1663 52.9702 42.1961 52.9702H30.2109V50.6268H40.4386V41.9903C40.4386 39.2591 39.3748 36.6907 37.4426 34.7586C35.5222 32.8382 32.9726 31.7754 30.259 31.7637H30.2109V28.2475C30.2273 28.2475 30.2449 28.2475 30.2613 28.2487C35.4414 28.2241 39.7836 24.3411 40.3707 19.1973C40.4153 18.8071 40.4387 18.4123 40.4387 18.021V9.37258H30.2109V7.0293H42.1962C43.1664 7.0293 43.9538 7.81668 43.9538 8.78687V18.021C43.9538 18.5447 43.9233 19.0756 43.8635 19.597C43.3479 24.1149 40.6777 27.9088 36.947 30.005Z" fill="#4987EA"/>
<path d="M47.5653 1.75758V8.78777C47.5653 9.75797 46.7779 10.5454 45.8077 10.5454H14.615C13.6448 10.5454 12.8574 9.75797 12.8574 8.78777V1.75758C12.8574 0.786211 13.6448 0 14.615 0H45.8077C46.7779 0 47.5653 0.786211 47.5653 1.75758Z" fill="#334973"/>
<path d="M47.5649 1.75758V8.78777C47.5649 9.75797 46.7775 10.5454 45.8073 10.5454H30.2109V0H45.8073C46.7775 0 47.5649 0.786211 47.5649 1.75758Z" fill="#1F3259"/>
<path d="M47.5653 51.2127V58.2429C47.5653 59.2142 46.7779 60.0005 45.8077 60.0005H14.615C13.6448 60.0005 12.8574 59.2142 12.8574 58.2429V51.2127C12.8574 50.2425 13.6448 49.4551 14.615 49.4551H45.8077C46.7779 49.4551 47.5653 50.2425 47.5653 51.2127Z" fill="#334973"/>
<path d="M47.5649 51.2125V58.2427C47.5649 59.2141 46.7775 60.0003 45.8073 60.0003H30.2109V49.4551H45.8073C46.7775 49.455 47.5649 50.2423 47.5649 51.2125Z" fill="#1F3259"/>
</g>
<defs>
<clipPath id="clip0_1247_6626">
<rect width="60" height="60" fill="white"/>
</clipPath>
</defs>
</svg>
