<svg width="60" height="60" viewBox="0 0 60 60" fill="none" xmlns="http://www.w3.org/2000/svg">
<g clip-path="url(#clip0_1247_6609)">
<path d="M13.9355 50.0391V58.2422C13.9355 59.2125 13.148 60 12.1777 60H5.14648C4.175 60 3.38867 59.2125 3.38867 58.2422V50.0391C3.38867 49.0688 4.175 48.2812 5.14648 48.2812H12.1777C13.148 48.2812 13.9355 49.0688 13.9355 50.0391Z" fill="#FF8066"/>
<path d="M27.998 41.3486V58.2424C27.998 59.2127 27.2105 60.0002 26.2402 60.0002H19.209C18.2375 60.0002 17.4512 59.2127 17.4512 58.2424V41.3486C17.4512 40.3783 18.2375 39.5908 19.209 39.5908H26.2402C27.2105 39.5908 27.998 40.3783 27.998 41.3486V41.3486Z" fill="#FABE2C"/>
<path d="M42.0605 28.3184V58.2422C42.0605 59.2125 41.273 60 40.3027 60H33.2715C32.3 60 31.5137 59.2125 31.5137 58.2422V28.3184C31.5137 27.3469 32.3 26.5605 33.2715 26.5605H40.3027C41.273 26.5605 42.0605 27.347 42.0605 28.3184Z" fill="#FFE14D"/>
<path d="M56.123 15.3564V58.2423C56.123 59.2126 55.3355 60.0001 54.3652 60.0001H47.334C46.3625 60.0001 45.5762 59.2126 45.5762 58.2423V15.3564C45.5762 14.385 46.3625 13.5986 47.334 13.5986H54.3652C55.3355 13.5986 56.123 14.385 56.123 15.3564Z" fill="#97DE3D"/>
<path d="M56.3072 2.74574L51.8459 9.31293C51.5178 9.79457 50.974 10.0829 50.3916 10.0829H44.5193L38.2264 22.1016C37.9229 22.6817 37.324 23.045 36.6689 23.045H30.7955L29.9998 24.4957L24.1486 35.1633C23.8393 35.7258 23.2486 36.075 22.6064 36.075H16.617L11.1643 44.0039C10.8373 44.4809 10.2947 44.7657 9.71582 44.7657H5.14551C4.1752 44.7657 3.3877 43.9782 3.3877 43.0079C3.3877 42.0375 4.1752 41.25 5.14551 41.25H8.79238L14.2439 33.3211C14.5721 32.8442 15.1146 32.5594 15.6924 32.5594H21.5658L28.2139 20.4411C28.5232 19.8786 29.1139 19.5293 29.7549 19.5293H35.6061L41.8979 7.50942C42.2014 6.93051 42.8014 6.56723 43.4553 6.56723H49.4611L53.3998 0.769964C53.9447 -0.0327706 55.0381 -0.241364 55.8408 0.303557C56.6447 0.849651 56.8533 1.94301 56.3072 2.74574V2.74574Z" fill="#334973"/>
<path d="M13.9355 50.0391V58.2422C13.9355 59.2125 13.148 60 12.1777 60H8.66211V48.2812H12.1777C13.148 48.2812 13.9355 49.0688 13.9355 50.0391Z" fill="#FF4D4D"/>
<path d="M27.998 41.3486V58.2424C27.998 59.2127 27.2105 60.0002 26.2402 60.0002H22.7246V39.5908H26.2402C27.2105 39.5908 27.998 40.3783 27.998 41.3486V41.3486Z" fill="#FF9100"/>
<path d="M42.0605 28.3184V58.2422C42.0605 59.2125 41.273 60 40.3027 60H36.7871V26.5605H40.3027C41.273 26.5605 42.0605 27.347 42.0605 28.3184V28.3184Z" fill="#FABE2C"/>
<path d="M56.123 15.3564V58.2423C56.123 59.2126 55.3355 60.0001 54.3652 60.0001H50.8496V13.5986H54.3652C55.3355 13.5986 56.123 14.385 56.123 15.3564Z" fill="#59C36A"/>
<path d="M56.3074 2.74574L51.8461 9.31293C51.518 9.79457 50.9742 10.0829 50.3918 10.0829H44.5195L38.2266 22.1016C37.923 22.6817 37.3242 23.045 36.6691 23.045H30.7957L30 24.4957V19.5293H35.6062L41.898 7.50942C42.2016 6.93051 42.8016 6.56723 43.4555 6.56723H49.4613L53.4 0.769964C53.9449 -0.0327706 55.0383 -0.241364 55.841 0.303557C56.6449 0.849651 56.8535 1.94301 56.3074 2.74574V2.74574Z" fill="#1F3259"/>
</g>
<defs>
<clipPath id="clip0_1247_6609">
<rect width="60" height="60" fill="white"/>
</clipPath>
</defs>
</svg>
