<svg width="25" height="25" viewBox="0 0 25 25" fill="none" xmlns="http://www.w3.org/2000/svg">
<g clip-path="url(#clip0_1247_6846)">
<path d="M16.1982 11.3382L10.7996 8.38428C10.4892 8.21444 10.1223 8.22078 9.81806 8.40106C9.51362 8.58153 9.33203 8.90033 9.33203 9.25418V15.1112C9.33203 15.4634 9.5125 15.7816 9.8149 15.9623C9.9728 16.0566 10.1479 16.104 10.3233 16.104C10.484 16.104 10.6451 16.0643 10.7933 15.9845L16.1921 13.0815C16.5125 12.909 16.7126 12.5759 16.7141 12.2118C16.7154 11.8477 16.5178 11.513 16.1982 11.3382ZM10.764 14.3744V9.99694L14.7988 12.2047L10.764 14.3744Z" fill="#161616"/>
<path d="M24.4753 7.54462L24.4742 7.53343C24.4535 7.33674 24.2475 5.58724 23.397 4.69739C22.4139 3.65075 21.2994 3.5236 20.7634 3.46263C20.719 3.4576 20.6784 3.45294 20.642 3.44809L20.5993 3.44362C17.3688 3.20871 12.49 3.17664 12.4412 3.17646L12.4369 3.17627L12.4326 3.17646C12.3837 3.17664 7.50496 3.20871 4.24535 3.44362L4.20228 3.44809C4.16761 3.45275 4.12939 3.45704 4.08781 3.46189C3.55797 3.52304 2.4554 3.65037 1.46954 4.73486C0.65948 5.61521 0.425319 7.32724 0.401269 7.51964L0.398472 7.54462C0.391201 7.62646 0.21875 9.57489 0.21875 11.531V13.3595C0.21875 15.3156 0.391201 17.264 0.398472 17.346L0.399777 17.3584C0.420471 17.5519 0.626295 19.2693 1.47289 20.1595C2.39723 21.1711 3.56598 21.305 4.19464 21.377C4.29401 21.3883 4.37958 21.398 4.43794 21.4083L4.49443 21.4161C6.3597 21.5936 12.2079 21.681 12.4559 21.6846L12.4634 21.6848L12.4708 21.6846C12.5197 21.6844 17.3983 21.6523 20.6288 21.4174L20.6715 21.4129C20.7123 21.4075 20.7582 21.4027 20.8085 21.3975C21.3354 21.3415 22.432 21.2254 23.4042 20.1556C24.2143 19.2751 24.4486 17.5631 24.4725 17.3708L24.4753 17.3459C24.4826 17.2638 24.6552 15.3156 24.6552 13.3595V11.531C24.655 9.57489 24.4826 7.62665 24.4753 7.54462ZM23.223 13.3595C23.223 15.17 23.0649 17.0345 23.05 17.2057C22.9892 17.6772 22.7422 18.7603 22.3475 19.1893C21.739 19.8588 21.1139 19.9252 20.6575 19.9735C20.6023 19.9792 20.5512 19.9848 20.505 19.9906C17.3804 20.2166 12.6858 20.2513 12.4695 20.2526C12.227 20.249 6.46429 20.1608 4.65588 19.9929C4.56322 19.9778 4.4631 19.9662 4.35758 19.9543C3.82233 19.8929 3.08965 19.809 2.52624 19.1893L2.51301 19.1752C2.12522 18.7712 1.88528 17.7583 1.82432 17.2113C1.81295 17.0819 1.65075 15.1953 1.65075 13.3595V11.531C1.65075 9.72255 1.80847 7.86007 1.82376 7.68538C1.89628 7.12999 2.14797 6.11243 2.52624 5.70115C3.15341 5.01135 3.81469 4.93491 4.25206 4.88438C4.29382 4.87954 4.33279 4.87506 4.36877 4.8704C7.53889 4.64332 12.2672 4.60958 12.4369 4.60827C12.6065 4.60939 17.3332 4.64332 20.4752 4.8704C20.5138 4.87525 20.5559 4.8801 20.6012 4.88532C21.0511 4.93659 21.731 5.01414 22.355 5.67971L22.3608 5.68587C22.7485 6.08987 22.9885 7.12048 23.0494 7.67848C23.0603 7.80059 23.223 9.69123 23.223 11.531V13.3595Z" fill="#161616"/>
</g>
<defs>
<clipPath id="clip0_1247_6846">
<rect width="24.4364" height="24.4364" fill="white" transform="translate(0.21875 0.217773)"/>
</clipPath>
</defs>
</svg>
