<svg width="25" height="19" viewBox="0 0 25 19" fill="none" xmlns="http://www.w3.org/2000/svg">
<path d="M16.1982 8.33815L10.7996 5.38428C10.4892 5.21444 10.1223 5.22078 9.81806 5.40106C9.51362 5.58153 9.33203 5.90033 9.33203 6.25418V12.1112C9.33203 12.4634 9.5125 12.7816 9.8149 12.9623C9.9728 13.0566 10.1479 13.104 10.3233 13.104C10.484 13.104 10.6451 13.0643 10.7933 12.9845L16.1921 10.0815C16.5125 9.90905 16.7126 9.57589 16.7141 9.21178C16.7154 8.84768 16.5178 8.51303 16.1982 8.33815ZM10.764 11.3744V6.99694L14.7988 9.2047L10.764 11.3744Z" fill="white"/>
<path d="M24.4753 4.54462L24.4742 4.53343C24.4535 4.33674 24.2475 2.58724 23.397 1.69739C22.4139 0.650746 21.2994 0.523597 20.7634 0.462633C20.719 0.457599 20.6784 0.452939 20.642 0.448091L20.5993 0.443617C17.3688 0.208709 12.49 0.176642 12.4412 0.176456L12.4369 0.17627L12.4326 0.176456C12.3837 0.176642 7.50496 0.208709 4.24535 0.443617L4.20228 0.448091C4.16761 0.452752 4.12939 0.45704 4.08781 0.461887C3.55797 0.523038 2.4554 0.650373 1.46954 1.73486C0.65948 2.61521 0.425319 4.32724 0.401269 4.51964L0.398472 4.54462C0.391201 4.62646 0.21875 6.57489 0.21875 8.53097V10.3595C0.21875 12.3156 0.391201 14.264 0.398472 14.346L0.399777 14.3584C0.420471 14.5519 0.626295 16.2693 1.47289 17.1595C2.39723 18.1711 3.56598 18.305 4.19464 18.377C4.29401 18.3883 4.37958 18.398 4.43794 18.4083L4.49443 18.4161C6.3597 18.5936 12.2079 18.681 12.4559 18.6846L12.4634 18.6848L12.4708 18.6846C12.5197 18.6844 17.3983 18.6523 20.6288 18.4174L20.6715 18.4129C20.7123 18.4075 20.7582 18.4027 20.8085 18.3975C21.3354 18.3415 22.432 18.2254 23.4042 17.1556C24.2143 16.2751 24.4486 14.5631 24.4725 14.3708L24.4753 14.3459C24.4826 14.2638 24.6552 12.3156 24.6552 10.3595V8.53097C24.655 6.57489 24.4826 4.62665 24.4753 4.54462V4.54462ZM23.223 10.3595C23.223 12.17 23.0649 14.0345 23.05 14.2057C22.9892 14.6772 22.7422 15.7603 22.3475 16.1893C21.739 16.8588 21.1139 16.9252 20.6575 16.9735C20.6023 16.9793 20.5512 16.9848 20.505 16.9906C17.3804 17.2166 12.6858 17.2513 12.4695 17.2526C12.227 17.249 6.46429 17.1608 4.65588 16.9929C4.56322 16.9778 4.4631 16.9662 4.35758 16.9543C3.82233 16.8929 3.08965 16.809 2.52624 16.1893L2.51301 16.1752C2.12522 15.7712 1.88528 14.7583 1.82432 14.2113C1.81295 14.0819 1.65075 12.1953 1.65075 10.3595V8.53097C1.65075 6.72255 1.80847 4.86007 1.82376 4.68538C1.89628 4.12999 2.14797 3.11243 2.52624 2.70115C3.15341 2.01135 3.81469 1.93491 4.25206 1.88438C4.29382 1.87954 4.33279 1.87506 4.36877 1.8704C7.53889 1.64332 12.2672 1.60958 12.4369 1.60827C12.6065 1.60939 17.3332 1.64332 20.4752 1.8704C20.5138 1.87525 20.5559 1.8801 20.6012 1.88532C21.0511 1.93659 21.731 2.01414 22.355 2.67971L22.3608 2.68587C22.7485 3.08987 22.9885 4.12048 23.0494 4.67848C23.0603 4.80059 23.223 6.69123 23.223 8.53097V10.3595Z" fill="white"/>
</svg>
